<mxfile host="app.diagrams.net" agent="Mozilla/5.0 (Windows NT 10.0; Win64; x64) AppleWebKit/537.36 (KHTML, like Gecko) Chrome/139.0.0.0 Safari/537.36" version="28.1.1">
  <diagram name="Страница — 1" id="maRSrWQY65lpkH0EzzzO">
    <mxGraphModel dx="1406" dy="777" grid="1" gridSize="10" guides="1" tooltips="1" connect="1" arrows="1" fold="1" page="1" pageScale="1" pageWidth="827" pageHeight="1169" math="0" shadow="0">
      <root>
        <mxCell id="0" />
        <mxCell id="1" parent="0" />
        <mxCell id="_ysDnDd5U3JQauGjZEUP-6" value="MESSAGES" style="swimlane;whiteSpace=wrap;html=1;" vertex="1" parent="1">
          <mxGeometry x="475" y="360" width="235" height="210" as="geometry" />
        </mxCell>
        <mxCell id="_ysDnDd5U3JQauGjZEUP-12" value="id&lt;div&gt;subject&lt;/div&gt;&lt;div&gt;message_text&lt;/div&gt;&lt;div&gt;date&lt;/div&gt;&lt;div&gt;users_id&lt;/div&gt;" style="text;html=1;align=left;verticalAlign=middle;resizable=0;points=[];autosize=1;strokeColor=none;fillColor=none;fontSize=25;" vertex="1" parent="_ysDnDd5U3JQauGjZEUP-6">
          <mxGeometry x="71" y="20" width="180" height="160" as="geometry" />
        </mxCell>
        <mxCell id="_ysDnDd5U3JQauGjZEUP-20" value="FK1&lt;div&gt;&lt;br&gt;&lt;/div&gt;" style="text;html=1;align=center;verticalAlign=middle;resizable=0;points=[];autosize=1;strokeColor=none;fillColor=none;fontSize=25;fontStyle=6" vertex="1" parent="_ysDnDd5U3JQauGjZEUP-6">
          <mxGeometry x="-10" y="140" width="70" height="70" as="geometry" />
        </mxCell>
        <mxCell id="_ysDnDd5U3JQauGjZEUP-8" value="AUTHORIZATION" style="swimlane;whiteSpace=wrap;html=1;startSize=23;" vertex="1" parent="1">
          <mxGeometry x="120" y="360" width="210" height="210" as="geometry" />
        </mxCell>
        <mxCell id="_ysDnDd5U3JQauGjZEUP-9" value="&lt;font&gt;id&lt;/font&gt;&lt;div&gt;&lt;font&gt;login&lt;/font&gt;&lt;/div&gt;&lt;div&gt;&lt;font&gt;password&lt;/font&gt;&lt;/div&gt;" style="text;html=1;align=left;verticalAlign=middle;resizable=0;points=[];autosize=1;strokeColor=none;fillColor=none;fontSize=25;" vertex="1" parent="_ysDnDd5U3JQauGjZEUP-8">
          <mxGeometry x="72.5" y="40" width="130" height="100" as="geometry" />
        </mxCell>
        <mxCell id="_ysDnDd5U3JQauGjZEUP-13" value="PK" style="text;html=1;align=center;verticalAlign=middle;resizable=0;points=[];autosize=1;strokeColor=none;fillColor=none;fontSize=25;fontStyle=6" vertex="1" parent="_ysDnDd5U3JQauGjZEUP-8">
          <mxGeometry y="40" width="60" height="40" as="geometry" />
        </mxCell>
        <mxCell id="_ysDnDd5U3JQauGjZEUP-5" value="USERS" style="swimlane;whiteSpace=wrap;html=1;" vertex="1" parent="1">
          <mxGeometry x="120" y="60" width="210" height="240" as="geometry">
            <mxRectangle x="40" y="80" width="80" height="30" as="alternateBounds" />
          </mxGeometry>
        </mxCell>
        <mxCell id="_ysDnDd5U3JQauGjZEUP-10" value="id&lt;div&gt;first_name&lt;/div&gt;&lt;div&gt;las_name&lt;/div&gt;&lt;div&gt;email&lt;/div&gt;&lt;div&gt;phone&lt;/div&gt;&lt;div&gt;&lt;br&gt;&lt;/div&gt;" style="text;html=1;align=left;verticalAlign=middle;resizable=0;points=[];autosize=1;strokeColor=none;fillColor=none;fontSize=25;fontStyle=0" vertex="1" parent="_ysDnDd5U3JQauGjZEUP-5">
          <mxGeometry x="70" y="40" width="140" height="190" as="geometry" />
        </mxCell>
        <mxCell id="_ysDnDd5U3JQauGjZEUP-15" value="auth_id" style="text;html=1;align=left;verticalAlign=middle;resizable=0;points=[];autosize=1;strokeColor=none;fillColor=none;fontSize=25;" vertex="1" parent="_ysDnDd5U3JQauGjZEUP-5">
          <mxGeometry x="70" y="195" width="110" height="40" as="geometry" />
        </mxCell>
        <mxCell id="_ysDnDd5U3JQauGjZEUP-16" value="FK2" style="text;html=1;align=center;verticalAlign=middle;resizable=0;points=[];autosize=1;strokeColor=none;fillColor=none;fontSize=25;fontStyle=6" vertex="1" parent="_ysDnDd5U3JQauGjZEUP-5">
          <mxGeometry x="-5" y="195" width="70" height="40" as="geometry" />
        </mxCell>
        <mxCell id="_ysDnDd5U3JQauGjZEUP-14" value="PK" style="text;html=1;align=center;verticalAlign=middle;resizable=0;points=[];autosize=1;strokeColor=none;fillColor=none;fontSize=25;fontStyle=6" vertex="1" parent="_ysDnDd5U3JQauGjZEUP-5">
          <mxGeometry x="-5" y="40" width="60" height="40" as="geometry" />
        </mxCell>
        <mxCell id="_ysDnDd5U3JQauGjZEUP-37" value="" style="endArrow=classic;html=1;rounded=0;entryX=-0.017;entryY=0.875;entryDx=0;entryDy=0;entryPerimeter=0;" edge="1" parent="_ysDnDd5U3JQauGjZEUP-5" target="_ysDnDd5U3JQauGjZEUP-13">
          <mxGeometry width="50" height="50" relative="1" as="geometry">
            <mxPoint x="-5" y="220" as="sourcePoint" />
            <mxPoint x="45" y="170" as="targetPoint" />
            <Array as="points">
              <mxPoint x="-50" y="220" />
              <mxPoint x="-50" y="375" />
            </Array>
          </mxGeometry>
        </mxCell>
        <mxCell id="_ysDnDd5U3JQauGjZEUP-7" value="CREDIT CARDS" style="swimlane;whiteSpace=wrap;html=1;" vertex="1" parent="1">
          <mxGeometry x="475" y="70" width="235" height="240" as="geometry" />
        </mxCell>
        <mxCell id="_ysDnDd5U3JQauGjZEUP-11" value="FK1" style="text;html=1;align=center;verticalAlign=middle;resizable=0;points=[];autosize=1;strokeColor=none;fillColor=none;fontSize=25;fontStyle=6" vertex="1" parent="_ysDnDd5U3JQauGjZEUP-7">
          <mxGeometry x="10" y="43" width="70" height="40" as="geometry" />
        </mxCell>
        <mxCell id="_ysDnDd5U3JQauGjZEUP-17" value="users_id" style="text;html=1;align=left;verticalAlign=middle;resizable=0;points=[];autosize=1;strokeColor=none;fillColor=none;fontSize=25;" vertex="1" parent="_ysDnDd5U3JQauGjZEUP-7">
          <mxGeometry x="75" y="43" width="120" height="40" as="geometry" />
        </mxCell>
        <mxCell id="_ysDnDd5U3JQauGjZEUP-18" value="card_type&lt;div&gt;card_number&lt;/div&gt;&lt;div&gt;state&lt;/div&gt;&lt;div&gt;expires&lt;/div&gt;" style="text;html=1;align=left;verticalAlign=middle;resizable=0;points=[];autosize=1;strokeColor=none;fillColor=none;fontSize=25;" vertex="1" parent="_ysDnDd5U3JQauGjZEUP-7">
          <mxGeometry x="75" y="83" width="170" height="130" as="geometry" />
        </mxCell>
        <mxCell id="_ysDnDd5U3JQauGjZEUP-38" value="" style="endArrow=classic;html=1;rounded=0;exitX=0.057;exitY=0.329;exitDx=0;exitDy=0;exitPerimeter=0;" edge="1" parent="1" source="_ysDnDd5U3JQauGjZEUP-20">
          <mxGeometry width="50" height="50" relative="1" as="geometry">
            <mxPoint x="390" y="330" as="sourcePoint" />
            <mxPoint x="334" y="120" as="targetPoint" />
            <Array as="points">
              <mxPoint x="400" y="523" />
              <mxPoint x="400" y="120" />
            </Array>
          </mxGeometry>
        </mxCell>
        <mxCell id="_ysDnDd5U3JQauGjZEUP-39" value="" style="endArrow=classic;html=1;rounded=0;" edge="1" parent="1">
          <mxGeometry width="50" height="50" relative="1" as="geometry">
            <mxPoint x="470" y="140" as="sourcePoint" />
            <mxPoint x="334" y="140" as="targetPoint" />
          </mxGeometry>
        </mxCell>
      </root>
    </mxGraphModel>
  </diagram>
</mxfile>
